<svg xmlns="http://www.w3.org/2000/svg" xmlns:xlink="http://www.w3.org/1999/xlink" viewBox="0 0 36 45"><path d="M 3.917 2.716 C 4.182 2.898 4.434 3.082 4.681 3.261 C 5.26 3.685 5.807 4.083 6.403 4.372 C 6.764 4.547 7.487 4.427 7.799 4.148 C 14.008 -1.375 22.012 -1.384 28.119 4.129 C 28.431 4.412 29.143 4.549 29.507 4.383 C 30.092 4.115 30.625 3.732 31.197 3.324 C 31.44 3.151 31.688 2.973 31.95 2.797 C 31.883 2.945 31.822 3.092 31.762 3.235 C 31.635 3.539 31.513 3.829 31.352 4.098 C 28.812 8.363 25.197 11.426 20.979 13.79 C 20.717 13.938 20.228 13.858 19.932 13.706 C 18.611 13.025 17.331 13.034 16.011 13.701 C 15.712 13.852 15.224 13.943 14.965 13.797 C 10.69 11.384 7.016 8.282 4.48 3.914 C 4.338 3.67 4.223 3.408 4.102 3.131 C 4.043 2.997 3.983 2.859 3.917 2.718 Z M 0.002 36.46 L 0.006 36.458 C 3.005 30.086 3.312 23.385 3.136 16.603 C 3.073 14.21 3.478 11.91 4.433 9.721 C 4.564 9.422 4.71 9.129 4.872 8.803 C 4.944 8.658 5.021 8.506 5.099 8.344 C 5.291 8.574 5.481 8.799 5.668 9.022 C 6.246 9.71 6.8 10.371 7.33 11.053 C 7.444 11.198 7.439 11.561 7.345 11.74 C 5.489 15.249 7.835 18.839 11.679 19.11 C 11.793 19.121 11.905 19.142 12.016 19.173 C 12.057 19.183 12.094 19.193 12.126 19.199 C 12.483 20.849 11.808 21.776 10.406 22.394 C 9.714 22.7 9.066 23.112 8.371 23.555 C 8.041 23.767 7.707 23.975 7.371 24.179 C 7.67 24.357 7.967 24.538 8.262 24.722 C 8.89 25.112 9.485 25.48 10.111 25.775 C 11.909 26.624 13.176 28.022 13.864 29.849 C 14.778 32.276 15.606 34.738 16.434 37.199 C 16.727 38.073 17.021 38.945 17.318 39.817 C 17.356 39.928 17.392 40.039 17.429 40.152 C 17.593 40.655 17.759 41.163 18.077 41.657 C 18.241 41.093 18.4 40.527 18.559 39.961 C 18.91 38.708 19.262 37.456 19.669 36.224 C 20.322 34.238 21.039 32.275 21.818 30.337 C 22.667 28.232 24.016 26.569 26.106 25.612 C 26.653 25.361 27.172 25.046 27.737 24.703 L 27.737 24.703 C 28.022 24.528 28.308 24.357 28.597 24.19 C 28.221 23.965 27.862 23.738 27.512 23.516 C 26.746 23.03 26.022 22.571 25.25 22.228 C 23.874 21.618 23.568 20.607 23.809 19.223 C 24.01 19.18 24.213 19.141 24.417 19.101 C 24.872 19.014 25.33 18.926 25.771 18.783 C 28.675 17.843 29.96 15.077 28.769 12.218 C 28.466 11.488 28.515 11.044 29.055 10.495 C 29.473 10.072 29.839 9.592 30.233 9.076 C 30.413 8.841 30.598 8.599 30.797 8.35 C 31.744 9.898 32.361 11.53 32.541 13.262 C 32.748 15.232 32.78 17.229 32.776 19.212 C 32.767 22.872 32.89 26.518 33.869 30.056 C 34.278 31.537 34.783 32.99 35.3 34.477 C 35.533 35.149 35.769 35.828 36 36.52 L 33.838 34.735 L 33.754 34.666 L 31.328 32.663 L 28.895 36.692 L 27.739 38.606 C 26.472 37.389 25.274 36.237 23.984 34.994 L 21.684 38.822 L 21.665 38.853 C 20.453 40.871 19.235 42.898 17.976 44.992 C 16.715 42.895 15.479 40.841 14.236 38.777 L 14.213 38.739 L 11.961 34.997 C 11.163 35.762 10.393 36.501 9.605 37.259 L 9.6 37.263 L 8.203 38.606 L 6.849 36.358 L 6.848 36.357 L 6.825 36.318 C 6.097 35.111 5.372 33.908 4.624 32.666 L 3.519 33.572 C 2.331 34.548 1.168 35.503 0.006 36.458 L 0 36.469 Z M 23.665 24.184 L 23.67 24.181 L 23.668 24.185 Z M 23.665 24.184 C 23.665 24.184 23.665 24.184 23.665 24.184 C 23.665 24.184 23.665 24.184 23.665 24.184 Z M 18.162 33.234 L 18.162 33.236 L 17.975 33.831 C 17.891 33.575 17.81 33.32 17.729 33.066 L 17.728 33.063 C 16.592 29.509 15.522 26.162 12.049 24.066 C 14.477 23.562 14.6 21.886 14.617 20.028 C 14.63 18.642 15.178 17.379 16.23 16.417 C 17.376 15.367 18.538 15.353 19.682 16.397 C 20.955 17.558 21.469 19.108 21.364 20.762 C 21.265 22.312 21.753 23.285 23.145 23.818 C 23.25 23.858 23.344 23.932 23.461 24.027 C 23.521 24.074 23.588 24.128 23.665 24.184 C 20.368 26.206 19.305 29.594 18.162 33.234 Z M 13.993 16.057 C 12.591 16.879 10.866 16.784 9.853 15.851 C 9.018 15.081 8.943 14.166 9.418 13.093 L 11.207 14.252 L 11.209 14.254 Z M 21.953 16.061 C 22.71 15.567 23.461 15.078 24.222 14.583 L 26.517 13.087 L 26.517 13.089 C 26.98 14.183 26.921 15.095 26.076 15.862 C 25.061 16.782 23.349 16.872 21.953 16.061 Z" fill="rgb(252, 172, 99)"></path></svg>