<svg xmlns="http://www.w3.org/2000/svg" xmlns:xlink="http://www.w3.org/1999/xlink" viewBox="0 0 46 38"><path d="M 42.078 0.335 C 42.078 0.335 46.333 -1.309 45.979 2.685 C 45.86 4.33 44.797 10.088 43.969 16.315 L 41.132 34.761 C 41.132 34.761 40.895 37.463 38.768 37.932 C 36.641 38.402 33.448 36.287 32.858 35.818 C 32.386 35.466 23.993 30.178 21.037 27.594 C 20.21 26.889 19.263 25.48 21.156 23.835 L 33.568 12.086 C 34.987 10.675 36.406 7.386 30.495 11.38 L 13.946 22.542 C 13.946 22.542 12.055 23.717 8.509 22.66 L 0.825 20.31 C 0.825 20.31 -2.012 18.547 2.835 16.785 C 14.655 11.263 29.195 5.623 42.078 0.335 Z" fill="rgb(252, 172, 99)"></path></svg>